<svg width="197" height="142" viewBox="0 0 197 142" fill="none" xmlns="http://www.w3.org/2000/svg">
    <rect opacity="0.24" width="631.694" height="352.523" rx="45.4479" transform="matrix(0.707107 0.707107 0.707107 -0.707107 -317.684 230.83)" fill="#6C5CE7"/>
    <g style="mix-blend-mode:multiply" opacity="0.24">
        <rect width="631.694" height="207.751" rx="45.4479" transform="matrix(0.707107 0.707107 0.707107 -0.707107 -61.9153 178.496)" fill="#FDCB6E"/>
    </g>
    <g clip-path="url(#clip0_164_107372)">
        <path d="M145.157 133.594C145.157 134.924 146.236 136.002 147.565 136.002C148.895 136.002 149.973 134.924 149.973 133.594C149.973 132.264 148.895 131.186 147.565 131.186C146.236 131.186 145.157 132.264 145.157 133.594Z" fill="#A29BFE"/>
        <path d="M153.184 141.62C153.184 142.95 154.262 144.028 155.592 144.028C156.922 144.028 158 142.95 158 141.62C158 140.29 156.922 139.212 155.592 139.212C154.262 139.212 153.184 140.29 153.184 141.62Z" fill="#A29BFE"/>
        <path d="M129.104 117.541C129.104 118.871 130.182 119.949 131.512 119.949C132.842 119.949 133.92 118.871 133.92 117.541C133.92 116.211 132.842 115.133 131.512 115.133C130.182 115.133 129.104 116.211 129.104 117.541Z" fill="#A29BFE"/>
        <path d="M137.131 125.567C137.131 126.897 138.209 127.975 139.539 127.975C140.869 127.975 141.947 126.897 141.947 125.567C141.947 124.238 140.869 123.159 139.539 123.159C138.209 123.159 137.131 124.238 137.131 125.567Z" fill="#A29BFE"/>
        <path d="M129.104 133.594C129.104 134.924 130.182 136.002 131.512 136.002C132.842 136.002 133.92 134.924 133.92 133.594C133.92 132.264 132.842 131.186 131.512 131.186C130.182 131.186 129.104 132.264 129.104 133.594Z" fill="#A29BFE"/>
        <path d="M137.131 141.62C137.131 142.95 138.209 144.028 139.539 144.028C140.869 144.028 141.947 142.95 141.947 141.62C141.947 140.29 140.869 139.212 139.539 139.212C138.209 139.212 137.131 140.29 137.131 141.62Z" fill="#A29BFE"/>
        <path d="M113.051 101.488C113.051 102.817 114.129 103.896 115.459 103.896C116.789 103.896 117.867 102.817 117.867 101.488C117.867 100.158 116.789 99.0796 115.459 99.0796C114.129 99.0796 113.051 100.158 113.051 101.488Z" fill="#A29BFE"/>
        <path d="M121.078 109.514C121.078 110.844 122.156 111.922 123.486 111.922C124.816 111.922 125.894 110.844 125.894 109.514C125.894 108.184 124.816 107.106 123.486 107.106C122.156 107.106 121.078 108.184 121.078 109.514Z" fill="#A29BFE"/>
        <path d="M113.051 117.541C113.051 118.871 114.129 119.949 115.459 119.949C116.789 119.949 117.867 118.871 117.867 117.541C117.867 116.211 116.789 115.133 115.459 115.133C114.129 115.133 113.051 116.211 113.051 117.541Z" fill="#A29BFE"/>
        <path d="M121.078 125.567C121.078 126.897 122.156 127.975 123.486 127.975C124.816 127.975 125.894 126.897 125.894 125.567C125.894 124.238 124.816 123.159 123.486 123.159C122.156 123.159 121.078 124.238 121.078 125.567Z" fill="#A29BFE"/>
        <path d="M113.051 133.594C113.051 134.924 114.129 136.002 115.459 136.002C116.789 136.002 117.867 134.924 117.867 133.594C117.867 132.264 116.789 131.186 115.459 131.186C114.129 131.186 113.051 132.264 113.051 133.594Z" fill="#A29BFE"/>
        <path d="M121.078 141.62C121.078 142.95 122.156 144.028 123.486 144.028C124.816 144.028 125.894 142.95 125.894 141.62C125.894 140.29 124.816 139.212 123.486 139.212C122.156 139.212 121.078 140.29 121.078 141.62Z" fill="#A29BFE"/>
        <path d="M105.025 109.514C105.025 110.844 106.103 111.922 107.433 111.922C108.763 111.922 109.841 110.844 109.841 109.514C109.841 108.184 108.763 107.106 107.433 107.106C106.103 107.106 105.025 108.184 105.025 109.514Z" fill="#A29BFE"/>
        <path d="M96.9982 117.541C96.9982 118.871 98.0762 119.949 99.4061 119.949C100.736 119.949 101.814 118.871 101.814 117.541C101.814 116.211 100.736 115.133 99.4061 115.133C98.0762 115.133 96.9982 116.211 96.9982 117.541Z" fill="#A29BFE"/>
        <path d="M105.025 125.567C105.025 126.897 106.103 127.975 107.433 127.975C108.763 127.975 109.841 126.897 109.841 125.567C109.841 124.238 108.763 123.159 107.433 123.159C106.103 123.159 105.025 124.238 105.025 125.567Z" fill="#A29BFE"/>
        <path d="M96.9982 133.594C96.9982 134.924 98.0762 136.002 99.4061 136.002C100.736 136.002 101.814 134.924 101.814 133.594C101.814 132.264 100.736 131.186 99.4061 131.186C98.0762 131.186 96.9982 132.264 96.9982 133.594Z" fill="#A29BFE"/>
        <path d="M105.025 141.62C105.025 142.95 106.103 144.028 107.433 144.028C108.763 144.028 109.841 142.95 109.841 141.62C109.841 140.29 108.763 139.212 107.433 139.212C106.103 139.212 105.025 140.29 105.025 141.62Z" fill="#A29BFE"/>
        <path d="M88.9717 125.567C88.9717 126.897 90.0497 127.975 91.3796 127.975C92.7095 127.975 93.7876 126.897 93.7876 125.567C93.7876 124.238 92.7095 123.159 91.3796 123.159C90.0497 123.159 88.9717 124.238 88.9717 125.567Z" fill="#A29BFE"/>
        <path d="M80.9451 133.594C80.9451 134.924 82.0231 136.002 83.353 136.002C84.6829 136.002 85.761 134.924 85.761 133.594C85.761 132.264 84.6829 131.186 83.353 131.186C82.0231 131.186 80.9451 132.264 80.9451 133.594Z" fill="#A29BFE"/>
        <path d="M88.9717 141.62C88.9717 142.95 90.0497 144.028 91.3796 144.028C92.7095 144.028 93.7876 142.95 93.7876 141.62C93.7876 140.29 92.7095 139.212 91.3796 139.212C90.0497 139.212 88.9717 140.29 88.9717 141.62Z" fill="#A29BFE"/>
        <path d="M72.9184 141.62C72.9184 142.95 73.9965 144.028 75.3264 144.028C76.6563 144.028 77.7344 142.95 77.7344 141.62C77.7344 140.29 76.6563 139.212 75.3264 139.212C73.9965 139.212 72.9184 140.29 72.9184 141.62Z" fill="#A29BFE"/>
    </g>
    <defs>
        <clipPath id="clip0_164_107372">
            <rect width="75.2662" height="102.636" fill="white" transform="translate(158 75) rotate(90)"/>
        </clipPath>
    </defs>
</svg>
